<svg width="132" height="50" viewBox="0 0 132 50" fill="none" xmlns="http://www.w3.org/2000/svg">
<path d="M49.5684 29.292C48.4189 30.6455 46.7861 31.3223 44.6699 31.3223C42.7793 31.3223 41.3452 30.769 40.3677 29.6626C39.4009 28.5562 38.9175 26.9556 38.9175 24.8608V13.5654H42.833V24.8125C42.833 27.0254 43.7515 28.1318 45.5884 28.1318C47.4897 28.1318 48.7734 27.4497 49.4395 26.0854V13.5654H53.355V31H49.665L49.5684 29.292ZM61.5083 31H57.5928V13.5654H61.5083V31ZM57.3511 9.0376C57.3511 8.43604 57.5391 7.93652 57.915 7.53906C58.3018 7.1416 58.8496 6.94287 59.5586 6.94287C60.2676 6.94287 60.8154 7.1416 61.2021 7.53906C61.5889 7.93652 61.7822 8.43604 61.7822 9.0376C61.7822 9.62842 61.5889 10.1226 61.2021 10.52C60.8154 10.9067 60.2676 11.1001 59.5586 11.1001C58.8496 11.1001 58.3018 10.9067 57.915 10.52C57.5391 10.1226 57.3511 9.62842 57.3511 9.0376ZM72.9487 28.1963C73.9263 28.1963 74.7373 27.9116 75.3818 27.3423C76.0264 26.7729 76.3701 26.0693 76.4131 25.2314H80.103C80.0601 26.3164 79.7217 27.3315 79.0879 28.2769C78.4541 29.2114 77.5947 29.9526 76.5098 30.5005C75.4248 31.0483 74.2539 31.3223 72.9971 31.3223C70.5586 31.3223 68.625 30.5327 67.1963 28.9536C65.7676 27.3745 65.0532 25.1938 65.0532 22.4116V22.0088C65.0532 19.3555 65.7622 17.2339 67.1802 15.644C68.5981 14.0435 70.5317 13.2432 72.981 13.2432C75.0542 13.2432 76.7407 13.8501 78.0405 15.064C79.3511 16.2671 80.0386 17.8516 80.103 19.8174H76.4131C76.3701 18.8184 76.0264 17.9966 75.3818 17.3521C74.748 16.7075 73.937 16.3853 72.9487 16.3853C71.6812 16.3853 70.7036 16.8472 70.0161 17.771C69.3286 18.6841 68.9795 20.0752 68.9688 21.9443V22.5728C68.9688 24.4634 69.3071 25.876 69.9839 26.8105C70.6714 27.7344 71.6597 28.1963 72.9487 28.1963ZM88.7236 23.5234L86.9834 25.312V31H83.0679V6.25H86.9834V20.5264L88.208 18.9956L93.0259 13.5654H97.731L91.2534 20.8325L98.4238 31H93.896L88.7236 23.5234ZM110.074 26.2627C110.074 25.5645 109.784 25.0327 109.204 24.6675C108.634 24.3022 107.684 23.98 106.352 23.7007C105.02 23.4214 103.908 23.0669 103.016 22.6372C101.061 21.6919 100.083 20.3223 100.083 18.5283C100.083 17.0244 100.717 15.7676 101.985 14.7578C103.252 13.748 104.864 13.2432 106.819 13.2432C108.903 13.2432 110.584 13.7588 111.862 14.79C113.151 15.8213 113.796 17.1587 113.796 18.8022H109.88C109.88 18.0503 109.601 17.4272 109.042 16.9331C108.484 16.4282 107.743 16.1758 106.819 16.1758C105.959 16.1758 105.256 16.3745 104.708 16.772C104.171 17.1694 103.902 17.7012 103.902 18.3672C103.902 18.9688 104.155 19.436 104.66 19.769C105.165 20.1021 106.185 20.4404 107.721 20.7842C109.257 21.1172 110.46 21.52 111.331 21.9927C112.211 22.4546 112.861 23.0132 113.28 23.6685C113.71 24.3237 113.925 25.1187 113.925 26.0532C113.925 27.6216 113.275 28.8945 111.975 29.8721C110.675 30.8389 108.973 31.3223 106.867 31.3223C105.438 31.3223 104.166 31.0645 103.048 30.5488C101.931 30.0332 101.061 29.3242 100.438 28.4219C99.8149 27.5195 99.5034 26.5474 99.5034 25.5054H103.306C103.36 26.4292 103.709 27.1436 104.354 27.6484C104.998 28.1426 105.852 28.3896 106.916 28.3896C107.947 28.3896 108.731 28.1963 109.268 27.8096C109.805 27.4121 110.074 26.8965 110.074 26.2627ZM123.448 25.3926L126.993 13.5654H131.166L124.237 33.6426C123.174 36.5752 121.369 38.0415 118.823 38.0415C118.254 38.0415 117.625 37.9448 116.938 37.7515V34.7222L117.679 34.7705C118.667 34.7705 119.409 34.5879 119.903 34.2227C120.408 33.8682 120.805 33.2666 121.095 32.418L121.659 30.9194L115.536 13.5654H119.758L123.448 25.3926Z" fill="#30CDCD"/>
<circle cx="16.5" cy="21.5" r="14.5" fill="#F7FCFC" stroke="#30CDCD" stroke-width="4"/>
<circle cx="21" cy="17" r="4" fill="#30CDCD"/>
<circle cx="10" cy="20" r="4" fill="#30CDCD"/>
<line x1="27.4799" y1="29.6547" x2="37.4799" y2="40.6547" stroke="#30CDCD" stroke-width="4"/>
<line x1="11.9556" y1="35.4191" x2="8.9556" y2="49.4191" stroke="#30CDCD" stroke-width="4"/>
</svg>
