<svg width="229" height="107" viewBox="0 0 229 107" fill="none" xmlns="http://www.w3.org/2000/svg">
<path d="M32.2578 71C32.1224 70.7292 32.0124 70.2467 31.9277 69.5527C30.8359 70.6868 29.5326 71.2539 28.0176 71.2539C26.6634 71.2539 25.5505 70.873 24.6787 70.1113C23.8154 69.3411 23.3838 68.3678 23.3838 67.1914C23.3838 65.7611 23.9255 64.6523 25.0088 63.8652C26.1006 63.0697 27.6325 62.6719 29.6045 62.6719H31.8896V61.5928C31.8896 60.7718 31.6442 60.1201 31.1533 59.6377C30.6624 59.1468 29.9388 58.9014 28.9824 58.9014C28.1445 58.9014 27.4421 59.113 26.875 59.5361C26.3079 59.9593 26.0244 60.4714 26.0244 61.0723H23.6631C23.6631 60.3867 23.9043 59.7266 24.3867 59.0918C24.8776 58.4486 25.5378 57.9408 26.3672 57.5684C27.2051 57.196 28.1234 57.0098 29.1221 57.0098C30.7048 57.0098 31.9447 57.4076 32.8418 58.2031C33.7389 58.9902 34.2044 60.0778 34.2383 61.4658V67.7881C34.2383 69.0492 34.3991 70.0521 34.7207 70.7969V71H32.2578ZM28.3604 69.21C29.0967 69.21 29.7949 69.0195 30.4551 68.6387C31.1152 68.2578 31.5934 67.7627 31.8896 67.1533V64.335H30.0488C27.1712 64.335 25.7324 65.1771 25.7324 66.8613C25.7324 67.5977 25.9779 68.1732 26.4688 68.5879C26.9596 69.0026 27.5902 69.21 28.3604 69.21ZM43.7979 64.0176C43.7979 61.8594 44.293 60.154 45.2832 58.9014C46.2734 57.6403 47.6022 57.0098 49.2695 57.0098C50.8945 57.0098 52.1768 57.5557 53.1162 58.6475L53.2178 57.2637H55.376V76.2812H53.0273V69.7305C52.0794 70.7461 50.8184 71.2539 49.2441 71.2539C47.5853 71.2539 46.2607 70.6107 45.2705 69.3242C44.2887 68.0293 43.7979 66.3154 43.7979 64.1826V64.0176ZM46.1465 64.2842C46.1465 65.8584 46.4766 67.0941 47.1367 67.9912C47.8053 68.8883 48.7025 69.3369 49.8281 69.3369C51.2246 69.3369 52.291 68.7191 53.0273 67.4834V60.7549C52.2826 59.5446 51.2246 58.9395 49.8535 58.9395C48.7194 58.9395 47.818 59.3923 47.1494 60.2979C46.4808 61.195 46.1465 62.5238 46.1465 64.2842ZM67.627 69.6416C66.7129 70.7165 65.3714 71.2539 63.6025 71.2539C62.1383 71.2539 61.0212 70.8307 60.251 69.9844C59.4893 69.1296 59.1042 67.8685 59.0957 66.2012V57.2637H61.4443V66.1377C61.4443 68.2197 62.2907 69.2607 63.9834 69.2607C65.7777 69.2607 66.971 68.5921 67.5635 67.2549V57.2637H69.9121V71H67.6777L67.627 69.6416ZM76.0439 71H73.6953V57.2637H76.0439V71ZM73.5049 53.6201C73.5049 53.2393 73.6191 52.9176 73.8477 52.6553C74.0846 52.3929 74.4316 52.2617 74.8887 52.2617C75.3457 52.2617 75.6927 52.3929 75.9297 52.6553C76.1667 52.9176 76.2852 53.2393 76.2852 53.6201C76.2852 54.001 76.1667 54.3184 75.9297 54.5723C75.6927 54.8262 75.3457 54.9531 74.8887 54.9531C74.4316 54.9531 74.0846 54.8262 73.8477 54.5723C73.6191 54.3184 73.5049 54.001 73.5049 53.6201ZM85.3242 69.3369C86.1621 69.3369 86.8942 69.083 87.5205 68.5752C88.1468 68.0674 88.4938 67.4326 88.5615 66.6709H90.7832C90.7409 67.458 90.4701 68.207 89.9707 68.918C89.4714 69.6289 88.8027 70.196 87.9648 70.6191C87.1354 71.0423 86.2552 71.2539 85.3242 71.2539C83.4538 71.2539 81.9642 70.6318 80.8555 69.3877C79.7552 68.1351 79.2051 66.4255 79.2051 64.2588V63.8652C79.2051 62.528 79.4505 61.3389 79.9414 60.2979C80.4323 59.2568 81.1348 58.4486 82.0488 57.873C82.9714 57.2975 84.0589 57.0098 85.3115 57.0098C86.8519 57.0098 88.1299 57.471 89.1455 58.3936C90.1696 59.3161 90.7155 60.5137 90.7832 61.9863H88.5615C88.4938 61.0977 88.1553 60.3698 87.5459 59.8027C86.945 59.2272 86.2002 58.9395 85.3115 58.9395C84.1182 58.9395 83.1914 59.3711 82.5312 60.2344C81.8796 61.0892 81.5537 62.3291 81.5537 63.9541V64.3984C81.5537 65.9811 81.8796 67.1999 82.5312 68.0547C83.1829 68.9095 84.1139 69.3369 85.3242 69.3369ZM97.2578 64.6396L95.7852 66.1758V71H93.4365V51.5H95.7852V63.2939L97.042 61.7832L101.32 57.2637H104.177L98.832 63.002L104.799 71H102.044L97.2578 64.6396ZM121.049 67.3564C121.049 66.7217 120.808 66.2308 120.325 65.8838C119.851 65.5283 119.018 65.2236 117.824 64.9697C116.639 64.7158 115.696 64.4111 114.993 64.0557C114.299 63.7002 113.783 63.277 113.444 62.7861C113.114 62.2952 112.949 61.7113 112.949 61.0342C112.949 59.9085 113.423 58.9564 114.371 58.1777C115.327 57.3991 116.546 57.0098 118.027 57.0098C119.585 57.0098 120.846 57.4118 121.811 58.2158C122.784 59.0199 123.271 60.0482 123.271 61.3008H120.909C120.909 60.6576 120.634 60.1032 120.084 59.6377C119.542 59.1722 118.857 58.9395 118.027 58.9395C117.173 58.9395 116.504 59.1257 116.021 59.498C115.539 59.8704 115.298 60.3571 115.298 60.958C115.298 61.5251 115.522 61.9525 115.971 62.2402C116.419 62.528 117.228 62.8031 118.396 63.0654C119.572 63.3278 120.524 63.641 121.252 64.0049C121.98 64.3688 122.517 64.8089 122.864 65.3252C123.22 65.833 123.397 66.4551 123.397 67.1914C123.397 68.4186 122.907 69.4046 121.925 70.1494C120.943 70.8857 119.669 71.2539 118.104 71.2539C117.003 71.2539 116.03 71.0592 115.184 70.6699C114.337 70.2806 113.673 69.7389 113.19 69.0449C112.716 68.3424 112.479 67.585 112.479 66.7725H114.828C114.87 67.5596 115.184 68.1859 115.768 68.6514C116.36 69.1084 117.139 69.3369 118.104 69.3369C118.992 69.3369 119.703 69.1592 120.236 68.8037C120.778 68.4398 121.049 67.9574 121.049 67.3564ZM134.938 69.6416C134.023 70.7165 132.682 71.2539 130.913 71.2539C129.449 71.2539 128.332 70.8307 127.562 69.9844C126.8 69.1296 126.415 67.8685 126.406 66.2012V57.2637H128.755V66.1377C128.755 68.2197 129.601 69.2607 131.294 69.2607C133.088 69.2607 134.282 68.5921 134.874 67.2549V57.2637H137.223V71H134.988L134.938 69.6416ZM147.442 59.3711C147.087 59.3118 146.702 59.2822 146.287 59.2822C144.747 59.2822 143.701 59.9382 143.151 61.25V71H140.803V57.2637H143.088L143.126 58.8506C143.896 57.6234 144.988 57.0098 146.401 57.0098C146.858 57.0098 147.205 57.069 147.442 57.1875V59.3711ZM154.374 67.8135L157.776 57.2637H160.176L155.25 71H153.46L148.483 57.2637H150.883L154.374 67.8135ZM167.958 71.2539C166.096 71.2539 164.581 70.6445 163.413 69.4258C162.245 68.1986 161.661 66.5609 161.661 64.5127V64.0811C161.661 62.7184 161.919 61.5039 162.436 60.4375C162.96 59.3626 163.688 58.5247 164.619 57.9238C165.559 57.3145 166.574 57.0098 167.666 57.0098C169.452 57.0098 170.84 57.598 171.83 58.7744C172.82 59.9508 173.315 61.6351 173.315 63.8271V64.8047H164.01C164.044 66.1589 164.437 67.2549 165.19 68.0928C165.952 68.9222 166.917 69.3369 168.085 69.3369C168.914 69.3369 169.617 69.1676 170.192 68.8291C170.768 68.4906 171.271 68.042 171.703 67.4834L173.138 68.6006C171.987 70.3695 170.26 71.2539 167.958 71.2539ZM167.666 58.9395C166.718 58.9395 165.923 59.2865 165.279 59.9805C164.636 60.666 164.238 61.6309 164.086 62.875H170.967V62.6973C170.899 61.5039 170.577 60.5814 170.002 59.9297C169.426 59.2695 168.648 58.9395 167.666 58.9395ZM180.361 67.5596L183.561 57.2637H186.074L180.552 73.1201C179.697 75.4053 178.339 76.5479 176.477 76.5479L176.032 76.5098L175.156 76.3447V74.4404L175.791 74.4912C176.587 74.4912 177.204 74.3304 177.645 74.0088C178.093 73.6872 178.461 73.099 178.749 72.2441L179.27 70.8477L174.369 57.2637H176.934L180.361 67.5596ZM195.786 71V59.0791H193.615V57.2637H195.786V55.8545C195.786 54.3818 196.18 53.2435 196.967 52.4395C197.754 51.6354 198.867 51.2334 200.306 51.2334C200.847 51.2334 201.385 51.3053 201.918 51.4492L201.791 53.3535C201.393 53.2773 200.97 53.2393 200.521 53.2393C199.76 53.2393 199.172 53.4635 198.757 53.9121C198.342 54.3522 198.135 54.987 198.135 55.8164V57.2637H201.067V59.0791H198.135V71H195.786ZM203.048 64.0049C203.048 62.6592 203.31 61.4489 203.835 60.374C204.368 59.2992 205.104 58.4697 206.044 57.8857C206.992 57.3018 208.071 57.0098 209.281 57.0098C211.152 57.0098 212.662 57.6572 213.813 58.9521C214.973 60.2471 215.553 61.9694 215.553 64.1191V64.2842C215.553 65.6214 215.295 66.8232 214.778 67.8896C214.271 68.9476 213.538 69.7728 212.582 70.3652C211.634 70.9577 210.542 71.2539 209.307 71.2539C207.445 71.2539 205.934 70.6064 204.774 69.3115C203.623 68.0166 203.048 66.3027 203.048 64.1699V64.0049ZM205.409 64.2842C205.409 65.8076 205.76 67.0306 206.463 67.9531C207.174 68.8757 208.122 69.3369 209.307 69.3369C210.5 69.3369 211.448 68.8714 212.15 67.9404C212.853 67.001 213.204 65.6891 213.204 64.0049C213.204 62.4984 212.844 61.2796 212.125 60.3486C211.414 59.4092 210.466 58.9395 209.281 58.9395C208.122 58.9395 207.187 59.4007 206.476 60.3232C205.765 61.2458 205.409 62.5661 205.409 64.2842ZM225.138 59.3711C224.782 59.3118 224.397 59.2822 223.982 59.2822C222.442 59.2822 221.397 59.9382 220.847 61.25V71H218.498V57.2637H220.783L220.821 58.8506C221.591 57.6234 222.683 57.0098 224.097 57.0098C224.554 57.0098 224.901 57.069 225.138 57.1875V59.3711ZM26.126 88.9268C27.167 87.6488 28.5212 87.0098 30.1885 87.0098C33.0915 87.0098 34.5557 88.6475 34.5811 91.9229V101H32.2324V91.9102C32.224 90.9199 31.9954 90.1878 31.5469 89.7139C31.1068 89.2399 30.417 89.0029 29.4775 89.0029C28.7158 89.0029 28.0472 89.2061 27.4717 89.6123C26.8962 90.0186 26.4476 90.5518 26.126 91.2119V101H23.7773V81.5H26.126V88.9268ZM37.4756 94.0049C37.4756 92.6592 37.738 91.4489 38.2627 90.374C38.7959 89.2992 39.5322 88.4697 40.4717 87.8857C41.4196 87.3018 42.4987 87.0098 43.709 87.0098C45.5794 87.0098 47.0902 87.6572 48.2412 88.9521C49.4007 90.2471 49.9805 91.9694 49.9805 94.1191V94.2842C49.9805 95.6214 49.7223 96.8232 49.2061 97.8896C48.6982 98.9476 47.9661 99.7728 47.0098 100.365C46.0618 100.958 44.9701 101.254 43.7344 101.254C41.8724 101.254 40.3617 100.606 39.2021 99.3115C38.0511 98.0166 37.4756 96.3027 37.4756 94.1699V94.0049ZM39.8369 94.2842C39.8369 95.8076 40.1882 97.0306 40.8906 97.9531C41.6016 98.8757 42.5495 99.3369 43.7344 99.3369C44.9277 99.3369 45.8757 98.8714 46.5781 97.9404C47.2806 97.001 47.6318 95.6891 47.6318 94.0049C47.6318 92.4984 47.2721 91.2796 46.5527 90.3486C45.8418 89.4092 44.8939 88.9395 43.709 88.9395C42.5495 88.9395 41.6143 89.4007 40.9033 90.3232C40.1924 91.2458 39.8369 92.5661 39.8369 94.2842ZM55.1475 87.2637L55.2236 88.9902C56.2731 87.6699 57.6442 87.0098 59.3369 87.0098C62.2399 87.0098 63.7041 88.6475 63.7295 91.9229V101H61.3809V91.9102C61.3724 90.9199 61.1439 90.1878 60.6953 89.7139C60.2552 89.2399 59.5654 89.0029 58.626 89.0029C57.8643 89.0029 57.1956 89.2061 56.6201 89.6123C56.0446 90.0186 55.596 90.5518 55.2744 91.2119V101H52.9258V87.2637H55.1475ZM72.9717 101.254C71.1097 101.254 69.5947 100.645 68.4268 99.4258C67.2588 98.1986 66.6748 96.5609 66.6748 94.5127V94.0811C66.6748 92.7184 66.9329 91.5039 67.4492 90.4375C67.974 89.3626 68.7018 88.5247 69.6328 87.9238C70.5723 87.3145 71.5879 87.0098 72.6797 87.0098C74.4655 87.0098 75.8535 87.598 76.8438 88.7744C77.834 89.9508 78.3291 91.6351 78.3291 93.8271V94.8047H69.0234C69.0573 96.1589 69.4508 97.2549 70.2041 98.0928C70.9658 98.9222 71.9307 99.3369 73.0986 99.3369C73.9281 99.3369 74.6305 99.1676 75.2061 98.8291C75.7816 98.4906 76.2852 98.042 76.7168 97.4834L78.1514 98.6006C77.0003 100.369 75.2738 101.254 72.9717 101.254ZM72.6797 88.9395C71.7318 88.9395 70.9362 89.2865 70.293 89.9805C69.6497 90.666 69.252 91.6309 69.0996 92.875H75.9805V92.6973C75.9128 91.5039 75.5911 90.5814 75.0156 89.9297C74.4401 89.2695 73.6615 88.9395 72.6797 88.9395ZM89.0566 97.3564C89.0566 96.7217 88.8154 96.2308 88.333 95.8838C87.859 95.5283 87.0254 95.2236 85.832 94.9697C84.6471 94.7158 83.7035 94.4111 83.001 94.0557C82.307 93.7002 81.7907 93.277 81.4521 92.7861C81.1221 92.2952 80.957 91.7113 80.957 91.0342C80.957 89.9085 81.431 88.9564 82.3789 88.1777C83.3353 87.3991 84.554 87.0098 86.0352 87.0098C87.5924 87.0098 88.8535 87.4118 89.8184 88.2158C90.7917 89.0199 91.2783 90.0482 91.2783 91.3008H88.917C88.917 90.6576 88.6419 90.1032 88.0918 89.6377C87.5501 89.1722 86.8646 88.9395 86.0352 88.9395C85.1803 88.9395 84.5117 89.1257 84.0293 89.498C83.5469 89.8704 83.3057 90.3571 83.3057 90.958C83.3057 91.5251 83.5299 91.9525 83.9785 92.2402C84.4271 92.528 85.2354 92.8031 86.4033 93.0654C87.5798 93.3278 88.5319 93.641 89.2598 94.0049C89.9876 94.3688 90.5251 94.8089 90.8721 95.3252C91.2275 95.833 91.4053 96.4551 91.4053 97.1914C91.4053 98.4186 90.9144 99.4046 89.9326 100.149C88.9508 100.886 87.6771 101.254 86.1113 101.254C85.0111 101.254 84.0378 101.059 83.1914 100.67C82.3451 100.281 81.6807 99.7389 81.1982 99.0449C80.7243 98.3424 80.4873 97.585 80.4873 96.7725H82.8359C82.8783 97.5596 83.1914 98.1859 83.7754 98.6514C84.3678 99.1084 85.1465 99.3369 86.1113 99.3369C87 99.3369 87.7109 99.1592 88.2441 98.8037C88.7858 98.4398 89.0566 97.9574 89.0566 97.3564ZM97.6514 83.9375V87.2637H100.216V89.0791H97.6514V97.5977C97.6514 98.1478 97.7656 98.5625 97.9941 98.8418C98.2227 99.1126 98.612 99.248 99.1621 99.248C99.4329 99.248 99.8053 99.1973 100.279 99.0957V101C99.6615 101.169 99.0605 101.254 98.4766 101.254C97.4271 101.254 96.6357 100.937 96.1025 100.302C95.5693 99.667 95.3027 98.7656 95.3027 97.5977V89.0791H92.8018V87.2637H95.3027V83.9375H97.6514ZM110.575 101V89.0791H108.404V87.2637H110.575V85.8545C110.575 84.3818 110.969 83.2435 111.756 82.4395C112.543 81.6354 113.656 81.2334 115.095 81.2334C115.636 81.2334 116.174 81.3053 116.707 81.4492L116.58 83.3535C116.182 83.2773 115.759 83.2393 115.311 83.2393C114.549 83.2393 113.961 83.4635 113.546 83.9121C113.131 84.3522 112.924 84.987 112.924 85.8164V87.2637H115.856V89.0791H112.924V101H110.575ZM123.854 101.254C121.993 101.254 120.478 100.645 119.31 99.4258C118.142 98.1986 117.558 96.5609 117.558 94.5127V94.0811C117.558 92.7184 117.816 91.5039 118.332 90.4375C118.857 89.3626 119.585 88.5247 120.516 87.9238C121.455 87.3145 122.471 87.0098 123.562 87.0098C125.348 87.0098 126.736 87.598 127.727 88.7744C128.717 89.9508 129.212 91.6351 129.212 93.8271V94.8047H119.906C119.94 96.1589 120.334 97.2549 121.087 98.0928C121.849 98.9222 122.813 99.3369 123.981 99.3369C124.811 99.3369 125.513 99.1676 126.089 98.8291C126.664 98.4906 127.168 98.042 127.6 97.4834L129.034 98.6006C127.883 100.369 126.157 101.254 123.854 101.254ZM123.562 88.9395C122.615 88.9395 121.819 89.2865 121.176 89.9805C120.533 90.666 120.135 91.6309 119.982 92.875H126.863V92.6973C126.796 91.5039 126.474 90.5814 125.898 89.9297C125.323 89.2695 124.544 88.9395 123.562 88.9395ZM137.642 101.254C135.78 101.254 134.265 100.645 133.097 99.4258C131.929 98.1986 131.345 96.5609 131.345 94.5127V94.0811C131.345 92.7184 131.603 91.5039 132.119 90.4375C132.644 89.3626 133.372 88.5247 134.303 87.9238C135.242 87.3145 136.258 87.0098 137.35 87.0098C139.135 87.0098 140.523 87.598 141.514 88.7744C142.504 89.9508 142.999 91.6351 142.999 93.8271V94.8047H133.693C133.727 96.1589 134.121 97.2549 134.874 98.0928C135.636 98.9222 136.601 99.3369 137.769 99.3369C138.598 99.3369 139.3 99.1676 139.876 98.8291C140.451 98.4906 140.955 98.042 141.387 97.4834L142.821 98.6006C141.67 100.369 139.944 101.254 137.642 101.254ZM137.35 88.9395C136.402 88.9395 135.606 89.2865 134.963 89.9805C134.32 90.666 133.922 91.6309 133.77 92.875H140.65V92.6973C140.583 91.5039 140.261 90.5814 139.686 89.9297C139.11 89.2695 138.331 88.9395 137.35 88.9395ZM145.157 94.0176C145.157 91.9102 145.657 90.2174 146.655 88.9395C147.654 87.653 148.962 87.0098 150.578 87.0098C152.186 87.0098 153.46 87.5599 154.399 88.6602V81.5H156.748V101H154.59L154.476 99.5273C153.536 100.678 152.229 101.254 150.553 101.254C148.962 101.254 147.662 100.602 146.655 99.2988C145.657 97.9954 145.157 96.2943 145.157 94.1953V94.0176ZM147.506 94.2842C147.506 95.8415 147.827 97.0602 148.471 97.9404C149.114 98.8206 150.003 99.2607 151.137 99.2607C152.626 99.2607 153.714 98.5921 154.399 97.2549V90.9453C153.697 89.6504 152.618 89.0029 151.162 89.0029C150.011 89.0029 149.114 89.4473 148.471 90.3359C147.827 91.2246 147.506 92.5407 147.506 94.2842ZM172.033 94.2842C172.033 96.3831 171.551 98.0716 170.586 99.3496C169.621 100.619 168.326 101.254 166.701 101.254C164.966 101.254 163.625 100.64 162.677 99.4131L162.562 101H160.404V81.5H162.753V88.7744C163.701 87.598 165.008 87.0098 166.676 87.0098C168.343 87.0098 169.651 87.6403 170.599 88.9014C171.555 90.1624 172.033 91.889 172.033 94.0811V94.2842ZM169.685 94.0176C169.685 92.418 169.376 91.1823 168.758 90.3105C168.14 89.4388 167.251 89.0029 166.092 89.0029C164.543 89.0029 163.43 89.7223 162.753 91.1611V97.1025C163.472 98.5413 164.594 99.2607 166.117 99.2607C167.243 99.2607 168.119 98.8249 168.745 97.9531C169.371 97.0814 169.685 95.7695 169.685 94.0176ZM183.484 101C183.349 100.729 183.239 100.247 183.154 99.5527C182.062 100.687 180.759 101.254 179.244 101.254C177.89 101.254 176.777 100.873 175.905 100.111C175.042 99.3411 174.61 98.3678 174.61 97.1914C174.61 95.7611 175.152 94.6523 176.235 93.8652C177.327 93.0697 178.859 92.6719 180.831 92.6719H183.116V91.5928C183.116 90.7718 182.871 90.1201 182.38 89.6377C181.889 89.1468 181.165 88.9014 180.209 88.9014C179.371 88.9014 178.669 89.113 178.102 89.5361C177.535 89.9593 177.251 90.4714 177.251 91.0723H174.89C174.89 90.3867 175.131 89.7266 175.613 89.0918C176.104 88.4486 176.764 87.9408 177.594 87.5684C178.432 87.196 179.35 87.0098 180.349 87.0098C181.931 87.0098 183.171 87.4076 184.068 88.2031C184.965 88.9902 185.431 90.0778 185.465 91.4658V97.7881C185.465 99.0492 185.626 100.052 185.947 100.797V101H183.484ZM179.587 99.21C180.323 99.21 181.021 99.0195 181.682 98.6387C182.342 98.2578 182.82 97.7627 183.116 97.1533V94.335H181.275C178.398 94.335 176.959 95.1771 176.959 96.8613C176.959 97.5977 177.204 98.1732 177.695 98.5879C178.186 99.0026 178.817 99.21 179.587 99.21ZM194.656 99.3369C195.494 99.3369 196.226 99.083 196.853 98.5752C197.479 98.0674 197.826 97.4326 197.894 96.6709H200.115C200.073 97.458 199.802 98.207 199.303 98.918C198.803 99.6289 198.135 100.196 197.297 100.619C196.467 101.042 195.587 101.254 194.656 101.254C192.786 101.254 191.296 100.632 190.188 99.3877C189.087 98.1351 188.537 96.4255 188.537 94.2588V93.8652C188.537 92.528 188.783 91.3389 189.273 90.2979C189.764 89.2568 190.467 88.4486 191.381 87.873C192.303 87.2975 193.391 87.0098 194.644 87.0098C196.184 87.0098 197.462 87.471 198.478 88.3936C199.502 89.3161 200.048 90.5137 200.115 91.9863H197.894C197.826 91.0977 197.487 90.3698 196.878 89.8027C196.277 89.2272 195.532 88.9395 194.644 88.9395C193.45 88.9395 192.523 89.3711 191.863 90.2344C191.212 91.0892 190.886 92.3291 190.886 93.9541V94.3984C190.886 95.9811 191.212 97.1999 191.863 98.0547C192.515 98.9095 193.446 99.3369 194.656 99.3369ZM206.59 94.6396L205.117 96.1758V101H202.769V81.5H205.117V93.2939L206.374 91.7832L210.652 87.2637H213.509L208.164 93.002L214.131 101H211.376L206.59 94.6396Z" fill="#F7FCFC"/>
<path d="M49.5684 29.292C48.4189 30.6455 46.7861 31.3223 44.6699 31.3223C42.7793 31.3223 41.3452 30.769 40.3677 29.6626C39.4009 28.5562 38.9175 26.9556 38.9175 24.8608V13.5654H42.833V24.8125C42.833 27.0254 43.7515 28.1318 45.5884 28.1318C47.4897 28.1318 48.7734 27.4497 49.4395 26.0854V13.5654H53.355V31H49.665L49.5684 29.292ZM61.5083 31H57.5928V13.5654H61.5083V31ZM57.3511 9.0376C57.3511 8.43604 57.5391 7.93652 57.915 7.53906C58.3018 7.1416 58.8496 6.94287 59.5586 6.94287C60.2676 6.94287 60.8154 7.1416 61.2021 7.53906C61.5889 7.93652 61.7822 8.43604 61.7822 9.0376C61.7822 9.62842 61.5889 10.1226 61.2021 10.52C60.8154 10.9067 60.2676 11.1001 59.5586 11.1001C58.8496 11.1001 58.3018 10.9067 57.915 10.52C57.5391 10.1226 57.3511 9.62842 57.3511 9.0376ZM72.9487 28.1963C73.9263 28.1963 74.7373 27.9116 75.3818 27.3423C76.0264 26.7729 76.3701 26.0693 76.4131 25.2314H80.103C80.0601 26.3164 79.7217 27.3315 79.0879 28.2769C78.4541 29.2114 77.5947 29.9526 76.5098 30.5005C75.4248 31.0483 74.2539 31.3223 72.9971 31.3223C70.5586 31.3223 68.625 30.5327 67.1963 28.9536C65.7676 27.3745 65.0532 25.1938 65.0532 22.4116V22.0088C65.0532 19.3555 65.7622 17.2339 67.1802 15.644C68.5981 14.0435 70.5317 13.2432 72.981 13.2432C75.0542 13.2432 76.7407 13.8501 78.0405 15.064C79.3511 16.2671 80.0386 17.8516 80.103 19.8174H76.4131C76.3701 18.8184 76.0264 17.9966 75.3818 17.3521C74.748 16.7075 73.937 16.3853 72.9487 16.3853C71.6812 16.3853 70.7036 16.8472 70.0161 17.771C69.3286 18.6841 68.9795 20.0752 68.9688 21.9443V22.5728C68.9688 24.4634 69.3071 25.876 69.9839 26.8105C70.6714 27.7344 71.6597 28.1963 72.9487 28.1963ZM88.7236 23.5234L86.9834 25.312V31H83.0679V6.25H86.9834V20.5264L88.208 18.9956L93.0259 13.5654H97.731L91.2534 20.8325L98.4238 31H93.896L88.7236 23.5234ZM110.074 26.2627C110.074 25.5645 109.784 25.0327 109.204 24.6675C108.634 24.3022 107.684 23.98 106.352 23.7007C105.02 23.4214 103.908 23.0669 103.016 22.6372C101.061 21.6919 100.083 20.3223 100.083 18.5283C100.083 17.0244 100.717 15.7676 101.985 14.7578C103.252 13.748 104.864 13.2432 106.819 13.2432C108.903 13.2432 110.584 13.7588 111.862 14.79C113.151 15.8213 113.796 17.1587 113.796 18.8022H109.88C109.88 18.0503 109.601 17.4272 109.042 16.9331C108.484 16.4282 107.743 16.1758 106.819 16.1758C105.959 16.1758 105.256 16.3745 104.708 16.772C104.171 17.1694 103.902 17.7012 103.902 18.3672C103.902 18.9688 104.155 19.436 104.66 19.769C105.165 20.1021 106.185 20.4404 107.721 20.7842C109.257 21.1172 110.46 21.52 111.331 21.9927C112.211 22.4546 112.861 23.0132 113.28 23.6685C113.71 24.3237 113.925 25.1187 113.925 26.0532C113.925 27.6216 113.275 28.8945 111.975 29.8721C110.675 30.8389 108.973 31.3223 106.867 31.3223C105.438 31.3223 104.166 31.0645 103.048 30.5488C101.931 30.0332 101.061 29.3242 100.438 28.4219C99.8149 27.5195 99.5034 26.5474 99.5034 25.5054H103.306C103.36 26.4292 103.709 27.1436 104.354 27.6484C104.998 28.1426 105.852 28.3896 106.916 28.3896C107.947 28.3896 108.731 28.1963 109.268 27.8096C109.805 27.4121 110.074 26.8965 110.074 26.2627ZM123.448 25.3926L126.993 13.5654H131.166L124.237 33.6426C123.174 36.5752 121.369 38.0415 118.823 38.0415C118.254 38.0415 117.625 37.9448 116.938 37.7515V34.7222L117.679 34.7705C118.667 34.7705 119.409 34.5879 119.903 34.2227C120.408 33.8682 120.805 33.2666 121.095 32.418L121.659 30.9194L115.536 13.5654H119.758L123.448 25.3926Z" fill="#30CDCD"/>
<circle cx="16.5" cy="21.5" r="14.5" fill="#F7FCFC" stroke="#30CDCD" stroke-width="4"/>
<circle cx="21" cy="17" r="4" fill="#30CDCD"/>
<circle cx="10" cy="20" r="4" fill="#30CDCD"/>
<line x1="27.4799" y1="29.6547" x2="37.4799" y2="40.6547" stroke="#30CDCD" stroke-width="4"/>
<line x1="11.9556" y1="35.4191" x2="8.9556" y2="49.4191" stroke="#30CDCD" stroke-width="4"/>
</svg>
